<?xml version="1.0" standalone="no"?><!DOCTYPE svg PUBLIC "-//W3C//DTD SVG 1.1//EN" "http://www.w3.org/Graphics/SVG/1.1/DTD/svg11.dtd"><svg t="1680505790491" class="icon" viewBox="0 0 1024 1024" version="1.1" xmlns="http://www.w3.org/2000/svg" p-id="3797" xmlns:xlink="http://www.w3.org/1999/xlink" width="200" height="200"><path d="M227.1 127.454H51.22c-19.82 0-35.892 16.07-35.892 35.89v798.172c0 19.828 16.07 35.898 35.89 35.898h175.884c19.828 0 35.898-16.07 35.898-35.9V163.346c0-19.82-16.07-35.89-35.9-35.89z m0 0" fill="#5EB3DD" p-id="3798"></path><path d="M99.156 997.4H51.21c-19.82 0-35.88-16.064-35.88-35.884V163.336c0-19.828 16.06-35.89 35.88-35.89h47.946c-19.828 0-35.906 16.06-35.906 35.89v798.18c0 19.82 16.08 35.882 35.906 35.882z m0 0" fill="#369AC1" p-id="3799"></path><path d="M783.188 215.626h-158.062c-17.814 0-32.26 14.436-32.26 32.256v717.274c0 17.812 14.446 32.258 32.26 32.258h158.06c17.814 0 32.252-14.446 32.252-32.258V247.882c0.008-17.82-14.438-32.258-32.25-32.258z m0 0" fill="#FFF5D7" p-id="3800"></path><path d="M678.172 997.406h-53.054c-17.798 0-32.244-14.446-32.244-32.242v-717.28c0-17.82 14.446-32.266 32.244-32.266h53.054c-17.82 0-32.266 14.444-32.266 32.264v717.282c0 17.796 14.446 32.242 32.266 32.242z m0 0" fill="#E0CFAF" p-id="3801"></path><path d="M975.876 66.532h-127.64c-18.11 0-32.8 14.686-32.8 32.796V964.62c0 18.108 14.688 32.796 32.8 32.796h127.64c18.108 0 32.796-14.688 32.796-32.796V99.328c0-18.11-14.688-32.796-32.798-32.796z m0 0" fill="#F9C84E" p-id="3802"></path><path d="M893.914 997.406h-45.672c-18.124 0-32.796-14.672-32.796-32.804V99.328c0-18.124 14.672-32.796 32.796-32.796h45.672c-18.1 0-32.796 14.672-32.796 32.796v865.274c0 18.132 14.694 32.804 32.796 32.804z m0 0" fill="#F7A34F" p-id="3803"></path><path d="M549.086 25.328H306.79c-24.188 0-43.79 19.6-43.79 43.79v884.506c0 24.18 19.6 43.79 43.79 43.79h242.288c24.188 0 43.79-19.61 43.79-43.788V69.116c0.008-24.188-19.602-43.79-43.782-43.79z m0 0" fill="#FC445F" p-id="3804"></path><path d="M354.368 997.414h-47.594c-24.18 0-43.774-19.594-43.774-43.79V69.12c0-24.18 19.594-43.774 43.774-43.774h47.594c-24.196 0-43.798 19.594-43.798 43.774v884.506c0 24.196 19.6 43.79 43.798 43.79z m0 0" fill="#DB0E35" p-id="3805"></path><path d="M263 166.492h329.868v61.258H263z m0 0M263 794.992h329.868v61.25H263z m0 0" fill="#3E4C56" p-id="3806"></path><path d="M975.876 51.204h-127.64c-26.532 0-48.126 21.586-48.126 48.124v104.094a47.17 47.17 0 0 0-16.922-3.126h-158.062c-5.962 0-11.666 1.11-16.922 3.126V69.118C608.204 36.524 581.68 10 549.086 10H306.79c-32.602 0-59.12 26.524-59.12 59.118v47.336a50.952 50.952 0 0 0-20.568-4.328H51.218C22.98 112.126 0 135.1 0 163.344v709.78a15.328 15.328 0 0 0 30.656 0V163.346c0-11.336 9.226-20.562 20.562-20.562h175.884c11.344 0 20.57 9.226 20.57 20.56v798.174c0 11.344-9.226 20.57-20.57 20.57H51.218c-11.336 0-20.56-9.226-20.56-20.57v-27.08a15.328 15.328 0 0 0-30.656 0v27.08c-0.002 28.24 22.974 51.22 51.216 51.22h175.884c15.148 0 28.774-6.61 38.156-17.096 10.68 10.564 25.36 17.094 41.532 17.094h242.288c15.64 0 29.868-6.11 40.454-16.054 8.718 9.836 21.444 16.054 35.594 16.054h158.06c12.518 0 23.916-4.866 32.416-12.796 8.586 7.936 20.054 12.796 32.632 12.796h127.64c26.54 0 48.126-21.586 48.126-48.116V99.328c0-26.532-21.586-48.124-48.126-48.124zM278.32 243.07h299.226v536.594H278.32z m0 567.25h299.226v30.594H278.32z m28.47-769.664h242.288c15.696 0 28.468 12.766 28.468 28.46v82.048h-51.336a15.328 15.328 0 0 0 0 30.656h51.336v30.6H278.32v-30.6h186.58a15.328 15.328 0 0 0 0-30.656h-186.58V69.118c0-15.696 12.774-28.46 28.47-28.46z m242.296 941.43H306.79c-15.696 0-28.47-12.766-28.47-28.46v-82.056h299.226v82.056c0 15.694-12.764 28.46-28.46 28.46z m251.024-16.93c0 9.336-7.594 16.93-16.922 16.93h-158.064c-9.328 0-16.92-7.594-16.92-16.93V247.882c0-9.336 7.592-16.928 16.92-16.928h158.064c9.328 0 16.92 7.592 16.92 16.928z m193.234-0.54c0 9.626-7.836 17.47-17.47 17.47h-127.64c-9.632 0-17.468-7.844-17.468-17.468V99.328c0-9.632 7.836-17.468 17.468-17.468h127.64c9.634 0 17.47 7.836 17.47 17.468z m0 0" p-id="3807"></path><path d="M73.914 297.242h130.492a15.328 15.328 0 0 0 0-30.656H73.914a15.328 15.328 0 0 0 0 30.656z m0 0M73.914 347.836h130.492a15.322 15.322 0 0 0 15.328-15.32 15.324 15.324 0 0 0-15.328-15.328H73.914a15.328 15.328 0 0 0-15.328 15.328c0 8.46 6.868 15.32 15.328 15.32z m0 0M73.914 398.438h130.492a15.328 15.328 0 0 0 0-30.656H73.914a15.328 15.328 0 0 0 0 30.656z m0 0M955.164 147.804h-86.22a15.328 15.328 0 0 0-15.326 15.32 15.328 15.328 0 0 0 15.328 15.33h86.218a15.324 15.324 0 0 0 15.328-15.33c0-8.46-6.86-15.32-15.328-15.32z m0 0M955.164 198.4h-86.22a15.328 15.328 0 0 0 0 30.656h86.22a15.328 15.328 0 0 0 0-30.656z m0 0M955.164 249h-86.22a15.334 15.334 0 0 0-15.326 15.328 15.334 15.334 0 0 0 15.328 15.328h86.218a15.328 15.328 0 0 0 0-30.656z m0 0M955.164 784.29h-86.22a15.334 15.334 0 0 0-15.326 15.328 15.334 15.334 0 0 0 15.328 15.328h86.218a15.328 15.328 0 0 0 0-30.656z m0 0M955.164 834.89h-86.22a15.328 15.328 0 0 0 0 30.656h86.22a15.328 15.328 0 0 0 0-30.656z m0 0M955.164 885.492h-86.22a15.328 15.328 0 0 0-15.326 15.32 15.328 15.328 0 0 0 15.328 15.328h86.218a15.324 15.324 0 0 0 15.328-15.328c0-8.46-6.86-15.32-15.328-15.32z m0 0M667.79 301.204a15.328 15.328 0 0 0-15.32 15.328v583.226a15.322 15.322 0 0 0 15.32 15.328 15.324 15.324 0 0 0 15.328-15.328V316.532c0-8.46-6.86-15.328-15.328-15.328z m0 0M729.61 474.312a15.328 15.328 0 0 0-15.328 15.328V899.76a15.328 15.328 0 0 0 30.656 0V489.64a15.324 15.324 0 0 0-15.328-15.328z m0 0" p-id="3808"></path></svg>